<?xml version="1.0" encoding="utf-8"?>
<!-- Generator: Adobe Illustrator 24.0.3, SVG Export Plug-In . SVG Version: 6.00 Build 0)  -->
<svg version="1.0" xmlns="http://www.w3.org/2000/svg" xmlns:xlink="http://www.w3.org/1999/xlink" x="0px" y="0px"
	 viewBox="0 0 1000 1000" style="enable-background:new 0 0 1000 1000;" xml:space="preserve">
<style type="text/css">
	.st0{fill:none;stroke:#000000;stroke-width:2.9491;stroke-linecap:round;stroke-linejoin:round;stroke-miterlimit:10;}
	.st1{fill:#FECE26;}
	.st2{fill:#FFFFFF;stroke:#000000;stroke-width:2.9491;stroke-linecap:round;stroke-linejoin:round;stroke-miterlimit:10;}
	.st3{fill:#CF38E5;}
	.st4{fill:none;stroke:#000000;stroke-width:2.9306;stroke-linecap:round;stroke-linejoin:round;stroke-miterlimit:10;}
	.st5{fill:#1A1A1A;}
	.st6{fill:#4065FF;}
	.st7{fill:none;stroke:#000000;stroke-width:3.5896;stroke-linecap:round;stroke-linejoin:round;stroke-miterlimit:10;}
	.st8{fill:#FFFFFF;}
	.st9{fill:none;stroke:#000000;stroke-width:1.4745;stroke-miterlimit:10;}
</style>
<g id="Layer_1">
</g>
<g id="Layer_21">
	<line class="st0" x1="291.2" y1="579.5" x2="291.2" y2="417.7"/>
	<path class="st0" d="M291.2,363.9v-22c0,0-1.8-26.2,25.2-26.2s83.1,0,83.1,0"/>
	<line class="st0" x1="499.7" y1="315.7" x2="571.6" y2="315.7"/>
	<polyline class="st0" points="495.6,451.2 601.2,451.2 601.2,496.6 	"/>
	<circle class="st0" cx="601.2" cy="511.3" r="8.4"/>
	<circle class="st0" cx="481.5" cy="452.3" r="8.4"/>
</g>
<g id="Layer_18">
	<path class="st0" d="M454.4,474.5h-69.6c-5.5,0-10-4.5-10-10v-26.8c0-5.5,4.5-10,10-10h69.6c5.5,0,10,4.5,10,10v26.8
		C464.4,470.1,460,474.5,454.4,474.5z"/>
</g>
<g id="Layer_19">
	<path class="st1" d="M443,485.7h-69.6c-5.5,0-10-4.5-10-10V449c0-5.5,4.5-10,10-10H443c5.5,0,10,4.5,10,10v26.8
		C453,481.3,448.5,485.7,443,485.7z"/>
	<path class="st0" d="M573.3,532.8h-72c-5.4,0-9.8-4.4-9.8-9.8v-29.3c0-5.4,4.4-9.8,9.8-9.8h72c5.4,0,9.8,4.4,9.8,9.8V523
		C583.1,528.4,578.7,532.8,573.3,532.8z"/>
	<rect x="406" y="286.5" class="st2" width="85.5" height="103.7"/>
	<path class="st1" d="M804.3,382.1H619.4c-11.8,0-21.4-9.6-21.4-21.4V251.9c0-11.8,9.6-21.4,21.4-21.4h184.9
		c11.8,0,21.4,9.6,21.4,21.4v108.8C825.6,372.5,816.1,382.1,804.3,382.1z"/>
</g>
<g id="Layer_20">
	<path class="st0" d="M789.3,409.5H604.5c-11.8,0-21.4-9.6-21.4-21.4V279.3c0-11.8,9.6-21.4,21.4-21.4h184.9
		c11.8,0,21.4,9.6,21.4,21.4v108.8C810.7,399.9,801.1,409.5,789.3,409.5z"/>
</g>
<g id="Layer_24">
	<line class="st0" x1="426.1" y1="327.1" x2="471.9" y2="327.1"/>
	<line class="st0" x1="426.1" y1="342.7" x2="471.9" y2="342.7"/>
	<line class="st0" x1="426.1" y1="358.3" x2="471.9" y2="358.3"/>
</g>
<g id="Layer_23">
	<circle class="st0" cx="631.4" cy="303.6" r="17.1"/>
	<line class="st0" x1="672.6" y1="297.6" x2="784.2" y2="297.6"/>
	<line class="st0" x1="614.3" y1="344.4" x2="661.8" y2="344.4"/>
	<line class="st0" x1="691.2" y1="344.4" x2="784.2" y2="344.4"/>
</g>
<g id="Layer_16">
	<path class="st2" d="M372.8,523.4c0,0-6.9-24.8-6.9-26.7c0-1.9,0.3-7.1,3.4-7.6c3.1-0.5,5.6-1.3,8.2,4.6c2.5,5.9,7,19.9,13.7,7.4
		c6.8-12.5,14.4-39.9,14.4-39.9s1.7-3.4,7.2-3.6c5.5-0.2,4.6,4,3.6,9.1c-1.1,5.1-7,22.5-7,22.5s8.4-0.7,8.9,7.5c0,0,8.9,1.5,7.6,11
		c-1.3,9.5-9.1,25.6-9.1,25.6L372.8,523.4z"/>
</g>
<g id="Layer_17">
	<path class="st0" d="M402.7,503.2c0,0,5.3-9.8,6.8-14.1"/>
	<path class="st0" d="M413,509.9c0,0,4.4-8,5.3-13.3"/>
</g>
<g id="Layer_6">
	<g>
		<path class="st3" d="M178.8,748.1c0.1-4.2,0.4-16.3,0.6-28.4c0.5-31-0.3-31.3-1.6-31.8c-0.2-0.1-0.5-0.1-0.8-0.1
			c-0.8,0-1.9,0.4-4.1,1.1c-3.8,1.3-9.5,3.2-14.9,3.2c-4.4,0-7.8-1.2-10.2-3.8c-0.6-0.6-1.2-1.2-1.7-1.8c-8.9-9-17.2-17.5-5-52.6
			c12.5-35.7,40.3-81,43.5-86.1l73.4-21.2c2.6,0.4,23.9,4.1,34.1,27.6c12.1,28,23,51.2,33.5,51.2c0.8,0,1.7-0.2,2.5-0.5
			c10.8-4.1,15.5-16.4,23-37.8c7.3-20.9,11.2-33.7,11.3-33.8c0.1-0.2,2.8-11.1,12.2-12.7c3.7-0.6,8.2-1.2,13.2-1.2
			c14.8,0,27.2,5.6,36.7,16.7l-8.9,47.5l-75,91c-1.7,0.3-7.5,1.1-13.6,1.1c-6.1,0-10.7-0.8-13.7-2.4c-0.2-0.1-0.5-0.2-0.7-0.2
			c-0.3,0-0.6,0.1-0.8,0.2c-0.5,0.3-0.7,0.8-0.7,1.3c0,0.2,1.3,18.4,3,36.7c2.2,23.9,3.7,33.1,4.7,36.8H178.8z"/>
		<path d="M387.6,520.7c14.2,0,26,5.3,35.1,15.7l-8.7,46.4l-74.4,90.3c-2.2,0.3-7.4,1-12.8,1c-5.8,0-10.3-0.8-13-2.3
			c-0.4-0.2-0.9-0.4-1.4-0.4c-0.6,0-1.1,0.2-1.6,0.5c-0.9,0.6-1.4,1.6-1.3,2.7c0,0.2,1.3,18.4,3,36.7c1.9,20.4,3.2,30.2,4.3,35.2
			H180.3c0.1-5.1,0.4-16,0.6-26.9c0.5-32-0.2-32.3-2.5-33.2c-0.4-0.2-0.9-0.2-1.3-0.2c0,0,0,0,0,0c-1,0-2.2,0.4-4.6,1.2
			c-3.7,1.2-9.2,3.1-14.4,3.1c-4,0-7-1.1-9.2-3.3c-0.6-0.6-1.2-1.2-1.7-1.8c-4.3-4.4-8.4-8.5-10-15.6c-1.9-8.3-0.1-19.9,5.3-35.5
			c12.1-34.7,38.8-78.4,43.1-85.3l72.5-21c3.4,0.5,23,4.5,32.6,26.7c14.6,33.8,24.5,52.1,34.9,52.1c1,0,2-0.2,3-0.6
			c11.4-4.3,16.3-16.9,23.9-38.7c7.3-20.9,11.3-33.7,11.3-33.9c0-0.1,0-0.1,0-0.2c0.1-0.4,2.5-10.1,11-11.5
			C378.5,521.3,382.7,520.7,387.6,520.7 M387.6,517.8c-5.4,0-10,0.7-13.4,1.3c-10.6,1.8-13.4,13.7-13.4,13.7s-3.9,12.7-11.3,33.8
			c-7.4,21.1-12,33.1-22.2,36.9c-0.6,0.2-1.3,0.4-2,0.4c-9.8,0-21.6-25.9-32.2-50.3c-11.3-26-35.5-28.5-35.5-28.5l-74.2,21.5
			c0,0-30.6,48.5-44,86.9c-13.4,38.3-2.5,46.1,7,55.9c3.1,3.2,7.1,4.2,11.3,4.2c8.4,0,17.2-4.3,19.1-4.3c0.1,0,0.2,0,0.2,0
			c1.8,0.7,0,60.3,0,60.3h143.6c-3.4-2.3-8.5-75.1-8.5-75.1c3.7,2,9.2,2.6,14.4,2.6c7.5,0,14.4-1.2,14.4-1.2l75.6-91.7l9.1-48.5
			C413.7,521,399.1,517.8,387.6,517.8L387.6,517.8z"/>
	</g>
</g>
<g id="Layer_12">
	<path class="st4" d="M185.4,553.5c0,0-6,50-6,70.9c0,20.9-1.4,53.5-0.7,63.2"/>
	<path d="M312.3,671.5c-14.4-8.1-64.7-30.3-73.9-87.9c0,0,6.1,87.2,75,102.7L312.3,671.5z"/>
</g>
<g id="Layer_14">
	<path class="st2" d="M252.8,508.6c0,0,23.5,2.8,23.7-25.3c0,0,6.1-5.7,5.7-8.7s-11.8-6.3-11.8-6.3l1.1-35.1l-50.5,14.6l-9,33.5
		L252.8,508.6z"/>
</g>
<g id="Layer_15">
	<path class="st0" d="M263.3,484.4c0,0,6.1,8.7,12.6,6.1"/>
	<polyline class="st0" points="229,472.1 236.4,476 231,480.9 	"/>
</g>
<g id="Layer_13">
	<path class="st2" d="M231.8,423.3c-6.6,7.5-43.9-5.5-47.8,22.6c-3.9,27.8,5,37,5,37s-21.7-0.9-17.6,21.2
		c4.1,22.1,10.8,13.7,10.8,13.7s-20.8,7.1-18.1,19.7c2.7,12.6,16.9,24.4,33.7,13.9c0,0,13.2,15.8,32.4,13.2
		c19.1-2.6,11.5-24,11.5-24s22.7-6.6,19.1-22.7c-3.6-16.1-7.5-28.3-22.3-30.7c0,0-11.3,2.2-14.4-1.7s-4.4-12.4-0.4-16.3
		c3.9-3.9,13.3-1.7,16.3,0.4c3,2.2,28.7-18.9,29.2-31.6l1.7,16.2c0,0,9.1-11.7,7.2-21S252.4,400,231.8,423.3z"/>
</g>
<g id="Layer_2">
	<path class="st5" d="M665.4,486.5c0,0-21.4-6-13.7-31.9s27.1-9.7,27.1-9.7s21.1-18.9,37.6,4.9c6.3,1.3,38.2,13.6,10.3,42.4l-8,4.3
		l-16,5.1L665.4,486.5z"/>
</g>
<g id="Layer_5">
	<g>
		<path class="st6" d="M601.8,748.1l-8.3-151.3c15.8-33.1,61.8-38.8,62.2-38.8c0.4,0,0.8-0.3,1-0.6c0.2-0.3,0.3-0.8,0.2-1.2
			c-4.4-19.1,9.2-27.6,11.3-28.8l44.2-2.5c1.1-0.1,2.2-0.1,3.2-0.1c10.1,0,17.9,3,23.1,8.8c9.1,10.3,7.3,26.4,7.3,26.6
			c0,0.4,0.1,0.8,0.3,1.1c0.3,0.3,0.7,0.5,1.1,0.5c22.5,0.7,37.4,24.8,38.3,26.2c1.1,2.5,27.7,61.1,35.7,96.3
			c7.3,32-2.3,58.7-4.4,63.8H601.8z"/>
		<path d="M715.7,526.2c9.7,0,17.1,2.8,22,8.3c8.7,9.8,6.9,25.3,6.9,25.4c-0.1,0.8,0.1,1.7,0.7,2.3c0.5,0.6,1.3,1,2.1,1
			c21.4,0.7,35.9,23.5,37,25.4c1.5,3.4,27.7,61.2,35.6,95.9c6.9,29.9-1.4,55.3-3.9,62H603.2L594.9,597c15.6-32,60.4-37.6,60.9-37.6
			c0.8-0.1,1.6-0.5,2.1-1.2c0.5-0.7,0.7-1.5,0.5-2.4c-4-17.3,7.7-25.5,10.3-27l43.8-2.4C713.6,526.3,714.6,526.2,715.7,526.2
			 M715.7,523.3c-1.1,0-2.2,0-3.3,0.1l-44.5,2.5c0,0-17.4,9-12.4,30.6c0,0-47.3,5.5-63.5,40l8.4,153.1h217.7c0,0,13.1-29.3,4.8-65.6
			c-8.3-36.3-35.9-96.7-35.9-96.7s-15.4-26.2-39.5-26.9C747.5,560.3,752.1,523.3,715.7,523.3L715.7,523.3z"/>
	</g>
	<path class="st5" d="M732.9,549.3c-2.3,5-9.4,8.5-17.6,11c-13.7,4.2-30.2,5.5-30.2,5.5c-10-2.1-15.2-5.9-17.7-10.2
		c-4.6-8,0.6-17.6,2.9-21.3c0.6-0.9,1-1.5,1-1.5s34.3-2.3,42.5-2c0.1,0,0.2,0,0.3,0C721.7,531.2,739,535.9,732.9,549.3z"/>
	<path class="st0" d="M791.7,715.9c0,0-9.3-28.5-61.2-53"/>
	<path class="st0" d="M740.6,746.9c0,0-47.8-39.9-50.9-43.7"/>
	<path class="st0" d="M739.8,619c0,0,18.6,40.7,15.6,57.9"/>
</g>
<g id="Layer_3">
	<path class="st2" d="M731.9,504.4c-0.4,11.9-18.9,8.9-18.9,8.9l0.9,17.5l1.5,29.5c-13.7,4.2-30.2,5.5-30.2,5.5
		c-10-2.1-15.2-5.9-17.7-10.2h8.4v-19.7c-2.1,0-4-0.6-5.6-1.6c-5.4-3.3-8.2-10.7-8.7-12.9c-0.6-2.9,0-49.3,0-49.3
		c6,8.5,43.2,2.8,43.2,2.8s0.5,11.1,0.4,16c-0.1,4.9,3.9,4.7,3.9,4.7C726.2,485.4,732.3,492.4,731.9,504.4z"/>
</g>
<g id="Layer_26">
	<path class="st0" d="M674.1,571c0,0-15.4-5.1-16.9-13.9"/>
	<path class="st0" d="M692.4,571.6c0,0,38.4,1.8,49.9-23.3"/>
	<path class="st7" d="M746.1,561.3c-5.5-1.5-11.2-2.1-11.2-2.1"/>
</g>
<g id="Layer_7">
	<path class="st5" d="M688.9,703.9c0,0-9.3-4.9,2.8-16.7c12.1-11.8,28-24.2,28-24.2s10.8-5.7,10.8,0s-14.7,22.4-24.9,30.3
		S688.9,703.9,688.9,703.9z"/>
</g>
<g id="Layer_8">
	<g>
		<path class="st8" d="M699.8,696.1c-8.1-14.8-10.2-14.8-10.9-14.8c-1.8,0-12.9,1.9-16.8,2.5l-17.6-45.1c3.6-1,13.2-3.2,22.6-3.2
			c6.9,0,12.3,1.2,16.2,3.5c12.1,7.2,27.4,28.5,30.7,33.2C718.5,678.8,705.8,693,699.8,696.1z"/>
		<path d="M677,634v2.9h0c6.6,0,11.8,1.1,15.5,3.3c11.2,6.7,25.3,25.9,29.6,31.9c-10.4,12.4-18,19.3-21.8,21.9
			c-7.9-14.2-10-14.2-11.5-14.2c-1.8,0-10.8,1.5-15.9,2.4l-16.6-42.4c4.3-1.1,12.5-2.8,20.6-2.8L677,634 M677,634
			c-12.3,0-24.5,3.7-24.5,3.7l18.6,47.7c0,0,15.7-2.7,17.8-2.7s10.3,15.2,10.3,15.2c7.3-2.3,26.7-25.7,26.7-25.7
			S708,646.1,694,637.8C689.4,635,683.2,634,677,634L677,634z"/>
	</g>
</g>
<g id="Layer_25">
	<path class="st0" d="M681.2,644.3c0,0-8.6,6.5-18,4.9"/>
	<path class="st0" d="M667.8,663.3c0,0,6.8,1,9.5-2.8"/>
	<path class="st0" d="M672.6,674.7c0,0,8.1,0.6,10.1-1.7"/>
</g>
<g id="Layer_9">
	<path class="st2" d="M658.9,644.9l26.6-31.8l9.3,8.9l-23.1,25.9c0,0-7,2-8.5,1.3C661.6,648.4,658.9,644.9,658.9,644.9z"/>
</g>
<g id="Layer_4">
	<path class="st0" d="M661.8,485.7c0,0,2.9-4.9,9.5-3.3"/>
	<path class="st0" d="M685.2,482.1c0,0,9.1-3.6,12.1,3.6"/>
	<path class="st0" d="M676,483.9c0,0-7,24.2-7.8,25.3c-0.8,1.2-1.6,5.1,9.1,1.9"/>
	<path class="st5" d="M677.4,518.8c0,0,0.6-3.6,5-3.8c4.4-0.1,7.1-2,7.1-4.3s5.7-4.9,7.3-1c1.6,3.9-0.2,13.8-7.3,15.4
		c-7.1,1.6-12.7,1-12.1-5.2"/>
	<path class="st0" d="M700.5,532.8c0,0-8.7,6-24.6,3.1"/>
	<ellipse cx="687.3" cy="493.6" rx="1.8" ry="4.5"/>
	<ellipse cx="263.3" cy="464" rx="1.8" ry="4.5"/>
	<ellipse cx="667.8" cy="492.9" rx="1.8" ry="4.5"/>
	<path class="st0" d="M268.5,457.1c0,0-3-1.9-7,0.5"/>
</g>
<g id="Layer_11">
	<path class="st2" d="M338.2,593.9c0,0,6.5-12,17.3-13.7s169.6,0,169.6,0s14-2,23.4,13.7h95.7l45.1,131.8l-97.2-1.3
		c0,0-2.8,22.9-20.4,25.1H384.4L338.2,593.9z"/>
</g>
<g id="Layer_22">
	<line class="st0" x1="560.2" y1="629.6" x2="548.4" y2="593.9"/>
	<line class="st0" x1="573" y1="668.2" x2="591.9" y2="724.4"/>
</g>
<g id="Layer_10">
	<path class="st5" d="M347.8,587.6c0,0-33.4,2.2-25.9,29.9c7.6,27.6,39.5,117.7,39.5,117.7s5.1,14.7,15.6,15.4c10.5,0.7,186,0,186,0
		s22.1-10.9,14-34.8c-8-23.9-35.2-102.6-35.2-102.6s-4.2-27-30.5-25.6C485,588.9,347.8,587.6,347.8,587.6z"/>
	<g>
		<path d="M269.5,376c0.2,0.2,0.5,0.3,0.7,0.3s0.5-0.1,0.7-0.3l3.2-3.2l3.2,3.2c0.2,0.2,0.5,0.3,0.7,0.3c0.3,0,0.5-0.1,0.7-0.3
			c0.4-0.4,0.4-1,0-1.4l-3.2-3.2l3.2-3.2c0.4-0.4,0.4-1,0-1.4c-0.4-0.4-1-0.4-1.4,0l-3.2,3.2l-3.2-3.2c-0.4-0.4-1-0.4-1.4,0
			c-0.4,0.4-0.4,1,0,1.4l3.2,3.2l-3.2,3.2C269.1,375,269.1,375.6,269.5,376L269.5,376z"/>
		<path d="M274.6,361.5c4.2,0,7.9,2.5,9.5,6.5c0.5,1.2,0.7,2.4,0.7,3.7c0,1.2-0.2,2.5-0.7,3.6c-1.5,3.9-5.3,6.5-9.5,6.5
			c-0.4,0-0.8,0-1.2-0.1c-1.2-0.1-2.4-0.5-3.5-1.1l0,0c-3.4-1.8-5.4-5.2-5.4-9C264.4,366.1,269,361.5,274.6,361.5L274.6,361.5z
			 M314.3,408.9c0,2-1.6,3.6-3.6,3.6H274c-2,0-3.6-1.6-3.6-3.6l0-25.8c0.4,0.1,0.8,0.3,1.2,0.4c0.1,0,0.2,0.1,0.3,0.1
			c0.3,0.1,0.7,0.1,1,0.2c0.1,0,0.2,0,0.4,0.1c0.4,0,0.9,0.1,1.3,0.1c0.3,0,0.6,0,0.9,0c0.1,0,0.2,0,0.3,0c0.2,0,0.4,0,0.6-0.1
			c0.1,0,0.2,0,0.4-0.1c0.2,0,0.4-0.1,0.5-0.1c0.1,0,0.2-0.1,0.4-0.1c0.2,0,0.3-0.1,0.5-0.1c0.1,0,0.2-0.1,0.4-0.1
			c0.2-0.1,0.3-0.1,0.5-0.2c0.1-0.1,0.2-0.1,0.4-0.2c0.1-0.1,0.3-0.1,0.4-0.2c0.1-0.1,0.2-0.1,0.4-0.2c0.1-0.1,0.3-0.1,0.4-0.2
			c0.1-0.1,0.2-0.1,0.4-0.2c0.1-0.1,0.3-0.2,0.4-0.2c0.1-0.1,0.2-0.2,0.3-0.2c0.1-0.1,0.2-0.2,0.4-0.3c0.1-0.1,0.2-0.2,0.3-0.3
			c0.1-0.1,0.2-0.2,0.4-0.3c0.1-0.1,0.2-0.2,0.3-0.3c0.1-0.1,0.2-0.2,0.3-0.3c0.1-0.1,0.2-0.2,0.3-0.3c0.1-0.1,0.2-0.2,0.3-0.4
			c0.1-0.1,0.2-0.2,0.3-0.3c0.1-0.1,0.2-0.3,0.3-0.4c0.1-0.1,0.2-0.2,0.2-0.3c0.1-0.1,0.2-0.3,0.3-0.4c0.1-0.1,0.1-0.2,0.2-0.4
			c0.1-0.1,0.2-0.3,0.2-0.4c0.1-0.1,0.1-0.2,0.2-0.4c0,0,0-0.1,0.1-0.1h28.6L314.3,408.9z M268.4,382.2v26.7c0,3.1,2.5,5.6,5.6,5.6
			h36.6c3.1,0,5.6-2.5,5.6-5.6v-34.2h-29.9c0.3-1,0.4-2,0.4-3c0-1-0.1-2.1-0.4-3.1h24.5c2,0,3.6,1.6,3.6,3.6c0,0.6,0.4,1,1,1
			s1-0.4,1-1c0-3.1-2.5-5.6-5.6-5.6l-25.2,0c-2-4.3-6.2-7.1-11-7.1c-6.7,0-12.2,5.5-12.2,12.2C262.4,376,264.7,380,268.4,382.2
			L268.4,382.2z"/>
		<path d="M309.7,370.7c-0.6,0-1,0.4-1,1s0.4,1,1,1h2.2c0.6,0,1-0.4,1-1s-0.4-1-1-1H309.7z"/>
		<path d="M289.7,392.2c0.2,0.3,0.7,0.4,1,0.3c0.4-0.1,0.7-0.4,0.7-0.8c0.4-2.4,2.4-4.1,4.9-4.1c2.7,0,4.9,2.2,4.9,4.9
			c0,0.7-0.1,1.4-0.4,2c-0.2,0.4-0.1,0.8,0.1,1.1c0.3,0.3,0.7,0.4,1,0.3c0.2-0.1,0.4-0.1,0.8-0.1c0.7,0,1.3,0.2,1.8,0.7
			c0.6,0.5,0.9,1.3,0.9,2.1c0,0.6-0.2,1.2-0.6,1.7l-23.8,0c-1.2-1.1-1.8-2.7-1.8-4.3c0-3.3,2.6-5.9,5.9-5.9
			C286.9,390.1,288.6,390.8,289.7,392.2L289.7,392.2z M277.3,396c0,2.3,1,4.5,2.8,6c0.2,0.2,0.4,0.2,0.6,0.2h24.6
			c0.3,0,0.5-0.1,0.7-0.3c0.9-0.9,1.4-2.1,1.4-3.4c0-1.3-0.6-2.6-1.5-3.6c-0.8-0.7-1.8-1.2-2.8-1.2c0.1-0.4,0.1-0.9,0.1-1.3
			c0-3.8-3.1-6.9-6.9-6.9c-2.8,0-5.2,1.7-6.3,4.1c-1.4-1.1-3.1-1.6-4.8-1.6C280.8,388.1,277.3,391.6,277.3,396L277.3,396z"/>
		<path d="M281,395.9c0,0.3,0.2,0.5,0.5,0.5s0.5-0.2,0.5-0.5c0-1.7,1.4-3.2,3.2-3.2c0.3,0,0.5-0.2,0.5-0.5s-0.2-0.5-0.5-0.5
			C282.9,391.7,281,393.6,281,395.9z"/>
	</g>
</g>
<g id="Layer_27">
	
		<ellipse transform="matrix(0.9732 -0.2298 0.2298 0.9732 -141.0559 120.9759)" class="st8" cx="448.8" cy="666" rx="13.9" ry="21.4"/>
	
		<ellipse transform="matrix(0.9732 -0.2298 0.2298 0.9732 -139.5728 121.8201)" class="st9" cx="453.2" cy="660.1" rx="13.9" ry="21.4"/>
</g>
</svg>
